<?xml version="1.0" encoding="UTF-8" standalone="no"?>
<svg
   xmlns:osb="http://www.openswatchbook.org/uri/2009/osb"
   xmlns:dc="http://purl.org/dc/elements/1.1/"
   xmlns:cc="http://creativecommons.org/ns#"
   xmlns:rdf="http://www.w3.org/1999/02/22-rdf-syntax-ns#"
   xmlns:svg="http://www.w3.org/2000/svg"
   xmlns="http://www.w3.org/2000/svg"
   xmlns:xlink="http://www.w3.org/1999/xlink"
   xmlns:sodipodi="http://sodipodi.sourceforge.net/DTD/sodipodi-0.dtd"
   xmlns:inkscape="http://www.inkscape.org/namespaces/inkscape"
   width="223"
   height="32"
   viewBox="0 0 59.002082 8.4666668"
   version="1.1"
   id="svg8"
   inkscape:version="1.0.1 (3bc2e813f5, 2020-09-07)"
   sodipodi:docname="logo-v1-full_2.svg">
  <defs
     id="defs2">
    <linearGradient
       id="linearGradient3260"
       osb:paint="solid">
      <stop
         style="stop-color:#e55354;stop-opacity:1;"
         offset="0"
         id="stop3258" />
    </linearGradient>
    <linearGradient
       id="linearGradient3254"
       osb:paint="solid">
      <stop
         style="stop-color:#6b7788;stop-opacity:1;"
         offset="0"
         id="stop3252" />
    </linearGradient>
    <linearGradient
       id="linearGradient3248"
       osb:paint="solid">
      <stop
         style="stop-color:#6b7785;stop-opacity:1;"
         offset="0"
         id="stop3246" />
    </linearGradient>
    <linearGradient
       id="linearGradient3242"
       osb:paint="solid">
      <stop
         style="stop-color:#6b7781;stop-opacity:1;"
         offset="0"
         id="stop3240" />
    </linearGradient>
    <linearGradient
       id="linearGradient3236"
       osb:paint="solid">
      <stop
         style="stop-color:#000000;stop-opacity:1;"
         offset="0"
         id="stop3234" />
    </linearGradient>
    <linearGradient
       id="linearGradient3218"
       osb:paint="solid">
      <stop
         style="stop-color:#000000;stop-opacity:1;"
         offset="0"
         id="stop3216" />
    </linearGradient>
    <rect
       x="131.53571"
       y="142.875"
       width="114.14881"
       height="49.136906"
       id="rect849" />
    <rect
       x="53.672619"
       y="33.261906"
       width="77.863098"
       height="34.773811"
       id="rect843" />
    <linearGradient
       inkscape:collect="always"
       xlink:href="#linearGradient3260"
       id="linearGradient3262"
       x1="1.3539246"
       y1="4.9926128"
       x2="2.3699242"
       y2="4.9926128"
       gradientUnits="userSpaceOnUse" />
    <rect
       x="-11.991346"
       y="-9.7548456"
       width="69.222809"
       height="28.397387"
       id="rect4045" />
    <rect
       x="-11.991346"
       y="-9.7548456"
       width="69.222809"
       height="28.397387"
       id="rect4169" />
    <rect
       x="-11.991346"
       y="-9.7548456"
       width="69.222809"
       height="28.397387"
       id="rect4045-4" />
    <rect
       x="-11.991346"
       y="-9.7548456"
       width="69.222809"
       height="28.397387"
       id="rect4264" />
    <rect
       x="-11.991346"
       y="-9.7548456"
       width="69.222809"
       height="28.397387"
       id="rect4045-3" />
    <rect
       x="-11.991346"
       y="-9.7548456"
       width="69.222809"
       height="28.397387"
       id="rect1854" />
  </defs>
  <sodipodi:namedview
     id="base"
     pagecolor="#ffffff"
     bordercolor="#666666"
     borderopacity="1.0"
     inkscape:pageopacity="0.0"
     inkscape:pageshadow="2"
     inkscape:zoom="3.959798"
     inkscape:cx="49.430156"
     inkscape:cy="-31.944766"
     inkscape:document-units="mm"
     inkscape:current-layer="text1547"
     inkscape:document-rotation="0"
     showgrid="false"
     units="px"
     inkscape:window-width="1920"
     inkscape:window-height="1022"
     inkscape:window-x="0"
     inkscape:window-y="0"
     inkscape:window-maximized="1" />
  <metadata
     id="metadata5">
    <rdf:RDF>
      <cc:Work
         rdf:about="">
        <dc:format>image/svg+xml</dc:format>
        <dc:type
           rdf:resource="http://purl.org/dc/dcmitype/StillImage" />
        <dc:title />
      </cc:Work>
    </rdf:RDF>
  </metadata>
  <g
     inkscape:label="Capa 1"
     inkscape:groupmode="layer"
     id="layer1">
    <g
       aria-label="{S} Saman-Core"
       id="text1446"
       style="font-style:normal;font-weight:normal;font-size:8.46667px;line-height:1.25;font-family:sans-serif;fill:#000000;fill-opacity:1;stroke:none;stroke-width:0.264583"
       transform="translate(-0.75058434,0.84153394)">
      <path
          d="M 0.80765083,3.2614755 Q 1.527318,3.1274199 1.527318,2.5206417 q 0,-0.2681113 -0.070556,-0.9172228 -0.070556,-0.69144487 -0.070556,-1.00188952 0,-0.50800033 0.2822224,-0.77611161 0.2892779,-0.26811128 0.769056,-0.26811128 h 0.4092225 v 0.55738924 h -0.289278 q -0.2751668,0 -0.4092224,0.12700009 -0.1340557,0.11994452 -0.1340557,0.40216692 0,0.20461125 0.028222,0.50800036 0.028222,0.2963335 0.035278,0.4021669 0.070556,0.6773338 0.070556,0.9877784 0,0.3739447 -0.1905002,0.6279449 -0.1834445,0.2469446 -0.5715003,0.3316113 v 0.014111 q 0.3880558,0.084667 0.5715003,0.3386669 0.1905002,0.2540002 0.1905002,0.6279448 0,0.3104447 -0.070556,0.9877785 -0.00706,0.1058334 -0.035278,0.4092224 -0.028222,0.2963336 -0.028222,0.5009448 0,0.2822224 0.1340557,0.4021669 Q 2.2822621,6.9092 2.5574289,6.9092 h 0.289278 V 7.4665894 H 2.4374852 q -0.4797781,0 -0.769056,-0.2681113 -0.2822224,-0.2681113 -0.2822224,-0.7761116 0,-0.3104447 0.070556,-1.0018896 0.070556,-0.6491115 0.070556,-0.9172228 0,-0.6067781 -0.71966717,-0.7408338 z"
          style="font-style:normal;font-variant:normal;font-weight:normal;font-stretch:normal;font-size:7.05556px;font-family:Poppins;-inkscape-font-specification:Poppins;fill:#6b7785;fill-opacity:1"
          id="path1810" />
      <path
          d="M 7.6021549,4.7008098 C 7.6021549,4.2986429 7.4187103,3.9670316 7.1576546,3.720087 6.6849321,3.2826422 6.2898207,3.2120866 5.1891533,3.0145309 4.8152086,2.9510309 4.2013749,2.8451975 4.2013749,2.4430306 c 0,-0.3316114 0.5644448,-0.5997226 1.2488341,-0.5997226 0.8113894,0 1.1782786,0.3457224 1.460501,0.6420559 0.056445,0.056445 0.070556,0.070556 0.1128889,0.070556 0.077611,0 0.091722,-0.0635 0.1058334,-0.1481667 l 0.1270001,-0.705556 c 0.014111,-0.056445 0.014111,-0.084667 0.014111,-0.084667 0,-0.0635 -0.049389,-0.091722 -0.049389,-0.091722 C 7.1788213,1.5046411 6.7907655,1.3353076 6.332154,1.2506409 6.2192651,1.2294742 5.9440982,1.1730298 5.4784313,1.1730298 c -1.3335009,0 -2.1872237,0.7267226 -2.1872237,1.5028343 0,0.3175002 0.1411112,0.6632226 0.465667,0.9383895 0.4586114,0.3810002 0.9172228,0.4586114 1.4887232,0.5644448 l 0.6773338,0.1199445 c 0.3386668,0.070556 0.769056,0.2610557 0.769056,0.6208893 0,0.3598335 -0.529167,0.6843893 -1.2488341,0.6843893 -0.4303892,0 -1.2206119,-0.1058334 -1.9191124,-0.7831672 -0.021167,-0.021167 -0.049389,-0.049389 -0.091722,-0.049389 -0.077611,0 -0.091722,0.0635 -0.1058334,0.1481668 l -0.127,0.705556 c -0.014111,0.056444 -0.014111,0.084667 -0.014111,0.084667 0,0.0635 0.049389,0.091722 0.049389,0.091722 0.077611,0.042333 0.9877784,0.4938892 2.1872236,0.4938892 1.3264453,0 2.1801681,-0.7831672 2.1801676,-1.5945565 z"
          style="font-style:normal;font-variant:normal;font-weight:bold;font-stretch:normal;font-family:'Latin Modern Sans Quotation';-inkscape-font-specification:'Latin Modern Sans Quotation Bold';fill:#6b7785;fill-opacity:1"
          id="path1812" />
      <path
          d="M 10.092768,3.7624203 Q 9.3731007,3.896476 9.3731007,4.5032541 q 0,0.2681113 0.070556,0.9172228 0.070556,0.6914449 0.070556,1.0018896 0,0.5080003 -0.289278,0.7761116 Q 8.9427115,7.4665894 8.4629334,7.4665894 H 8.053711 V 6.9092001 h 0.2892779 q 0.2751669,0 0.4092225,-0.1270001 Q 8.886267,6.6622555 8.886267,6.3800331 8.886267,6.1754219 8.858045,5.8790883 8.829823,5.5756993 8.822767,5.4698659 8.752211,4.7925321 8.752211,4.4820874 q 0,-0.3739446 0.1834446,-0.6279448 Q 9.1261561,3.6001424 9.5142119,3.5154757 V 3.5013646 Q 9.1261561,3.4166979 8.935656,3.1697533 8.7522114,2.9157531 8.7522114,2.5418084 q 0,-0.3104446 0.070556,-0.9877784 0.00706,-0.1058334 0.035278,-0.4021669 0.028222,-0.30338911 0.028222,-0.50800036 0,-0.2822224 -0.1340556,-0.40216692 Q 8.6181558,0.11469573 8.3429889,0.11469573 H 8.053711 v -0.55738924 h 0.4092224 q 0.4797781,0 0.7620005,0.26811128 0.289278,0.26811128 0.289278,0.77611161 0,0.31044465 -0.070556,1.00188952 -0.070556,0.6491115 -0.070556,0.9172228 0,0.6067782 0.7196671,0.7408338 z"
          style="font-style:normal;font-variant:normal;font-weight:normal;font-stretch:normal;font-size:7.05556px;font-family:Poppins;-inkscape-font-specification:Poppins;fill:#6b7785;fill-opacity:1"
          id="path1814" />
      <path
          d="m 19.660099,4.8454497 c 0,-0.36195 -0.1651,-0.6604 -0.40005,-0.88265 -0.42545,-0.3937 -0.78105,-0.4572 -1.77165,-0.635 -0.33655,-0.05715 -0.889,-0.1524 -0.889,-0.51435 0,-0.29845 0.508,-0.53975 1.12395,-0.53975 0.73025,0 1.06045,0.31115 1.31445,0.57785 0.0508,0.0508 0.0635,0.0635 0.1016,0.0635 0.06985,0 0.08255,-0.05715 0.09525,-0.13335 l 0.1143,-0.635 c 0.0127,-0.0508 0.0127,-0.0762 0.0127,-0.0762 0,-0.05715 -0.04445,-0.08255 -0.04445,-0.08255 -0.0381,-0.01905 -0.38735,-0.17145 -0.8001,-0.24765 -0.1016,-0.01905 -0.34925,-0.06985 -0.76835,-0.06985 -1.20015,0 -1.9685,0.65405 -1.9685,1.35255 0,0.28575 0.127,0.5969 0.4191,0.84455 0.41275,0.3429 0.8255,0.41275 1.33985,0.508 l 0.6096,0.10795 c 0.3048,0.0635 0.69215,0.23495 0.69215,0.5587999 0,0.32385 -0.47625,0.61595 -1.12395,0.61595 -0.38735,0 -1.09855,-0.09525 -1.7272,-0.70485 -0.01905,-0.01905 -0.04445,-0.04445 -0.08255,-0.04445 -0.06985,0 -0.08255,0.05715 -0.09525,0.13335 l -0.1143,0.635 c -0.0127,0.0508 -0.0127,0.0762 -0.0127,0.0762 0,0.05715 0.04445,0.08255 0.04445,0.08255 0.06985,0.0381 0.889,0.4445 1.9685,0.4445 1.1938,0 1.96215,-0.70485 1.96215,-1.4350999 z"
          style="font-style:normal;font-variant:normal;font-weight:bold;font-stretch:normal;font-family:'Latin Modern Sans Quotation';-inkscape-font-specification:'Latin Modern Sans Quotation Bold';fill:#6b7785;fill-opacity:1"
          id="path1816" />
      <path
          d="M 23.2542,5.8677996 V 3.7722997 c 0,-0.66675 -0.6731,-1.13665 -1.5621,-1.13665 -0.37465,0 -0.762,0.04445 -1.2319,0.22225 -0.0635,0.0254 -0.1524,0.05715 -0.1778,0.08255 -0.04445,0.0254 -0.04445,0.06985 -0.04445,0.0889 0,0.0762 0.03175,0.4064 0.04445,0.48895 0.0064,0.03175 0.0127,0.1016 0.0889,0.1016 0.03175,0 0.04445,0 0.13335,-0.08255 0.22225,-0.20955 0.57785,-0.4572 1.18745,-0.4572 0.3429,0 0.635,0.2413 0.635,0.70485 v 0.23495 c -0.9525,0.0127 -2.41935,0.27305 -2.41935,1.1429999 0,0.5588 0.48895,1.04775 1.1557,1.04775 0.59055,0 1.07315,-0.27305 1.27635,-0.57785 v 0.23495 c 0,0.2159 0.0508,0.2794 0.2794,0.2794 h 0.3556 c 0.2159,0 0.2794,-0.0508 0.2794,-0.2794 z m -0.9271,-0.83185 c 0,0.69215 -0.83185,0.69215 -0.85725,0.69215 -0.37465,0 -0.65405,-0.26035 -0.65405,-0.5715 0,-0.4762499 0.5969,-0.8064499 1.5113,-0.8635999 z"
          style="font-style:normal;font-variant:normal;font-weight:bold;font-stretch:normal;font-family:'Latin Modern Sans Quotation';-inkscape-font-specification:'Latin Modern Sans Quotation Bold';fill:#6b7785;fill-opacity:1"
          id="path1818" />
      <path
          d="M 29.369247,5.8677996 V 3.6960997 c 0,-0.80645 -0.52705,-1.0287 -1.1811,-1.0287 -0.8001,0 -1.16205,0.5207 -1.27635,0.71755 -0.1397,-0.65405 -0.76835,-0.71755 -1.14935,-0.71755 -0.6223,0 -1.03505,0.31115 -1.26365,0.6985 v -0.3556 c 0,-0.2159 -0.0508,-0.2794 -0.2794,-0.2794 h -0.34925 c -0.2159,0 -0.2794,0.0508 -0.2794,0.2794 v 2.8574999 c 0,0.2159 0.0508,0.2794 0.2794,0.2794 h 0.3683 c 0.2159,0 0.2794,-0.0508 0.2794,-0.2794 V 4.0326497 c 0,-0.61595 0.48895,-0.88265 0.90805,-0.88265 0.5588,0 0.59055,0.3175 0.59055,0.57785 v 2.1399499 c 0,0.2159 0.0508,0.2794 0.2794,0.2794 h 0.3683 c 0.2159,0 0.2794,-0.0508 0.2794,-0.2794 V 4.0326497 c 0,-0.61595 0.48895,-0.88265 0.90805,-0.88265 0.5588,0 0.59055,0.3175 0.59055,0.57785 v 2.1399499 c 0,0.2159 0.0508,0.2794 0.2794,0.2794 h 0.3683 c 0.2159,0 0.2794,-0.0508 0.2794,-0.2794 z"
          style="font-style:normal;font-variant:normal;font-weight:bold;font-stretch:normal;font-family:'Latin Modern Sans Quotation';-inkscape-font-specification:'Latin Modern Sans Quotation Bold';fill:#6b7785;fill-opacity:1"
          id="path1820" />
      <path
          d="M 32.963346,5.8677996 V 3.7722997 c 0,-0.66675 -0.6731,-1.13665 -1.5621,-1.13665 -0.37465,0 -0.762,0.04445 -1.2319,0.22225 -0.0635,0.0254 -0.1524,0.05715 -0.1778,0.08255 -0.04445,0.0254 -0.04445,0.06985 -0.04445,0.0889 0,0.0762 0.03175,0.4064 0.04445,0.48895 0.0064,0.03175 0.0127,0.1016 0.0889,0.1016 0.03175,0 0.04445,0 0.13335,-0.08255 0.22225,-0.20955 0.57785,-0.4572 1.18745,-0.4572 0.3429,0 0.635,0.2413 0.635,0.70485 v 0.23495 c -0.9525,0.0127 -2.41935,0.27305 -2.41935,1.1429999 0,0.5588 0.48895,1.04775 1.1557,1.04775 0.59055,0 1.07315,-0.27305 1.27635,-0.57785 v 0.23495 c 0,0.2159 0.0508,0.2794 0.2794,0.2794 h 0.3556 c 0.2159,0 0.2794,-0.0508 0.2794,-0.2794 z m -0.9271,-0.83185 c 0,0.69215 -0.83185,0.69215 -0.85725,0.69215 -0.37465,0 -0.65405,-0.26035 -0.65405,-0.5715 0,-0.4762499 0.5969,-0.8064499 1.5113,-0.8635999 z"
          style="font-style:normal;font-variant:normal;font-weight:bold;font-stretch:normal;font-family:'Latin Modern Sans Quotation';-inkscape-font-specification:'Latin Modern Sans Quotation Bold';fill:#6b7785;fill-opacity:1"
          id="path1822" />
      <path
          d="M 36.652698,5.8677996 V 3.6960997 c 0,-0.80645 -0.52705,-1.0287 -1.1811,-1.0287 -0.6223,0 -1.03505,0.31115 -1.26365,0.6985 v -0.3556 c 0,-0.2159 -0.0508,-0.2794 -0.2794,-0.2794 h -0.34925 c -0.2159,0 -0.2794,0.0508 -0.2794,0.2794 v 2.8574999 c 0,0.2159 0.0508,0.2794 0.2794,0.2794 h 0.3683 c 0.2159,0 0.2794,-0.0508 0.2794,-0.2794 V 4.0326497 c 0,-0.61595 0.48895,-0.88265 0.90805,-0.88265 0.5588,0 0.59055,0.3175 0.59055,0.57785 v 2.1399499 c 0,0.2159 0.0508,0.2794 0.2794,0.2794 h 0.3683 c 0.2159,0 0.2794,-0.0508 0.2794,-0.2794 z"
          style="font-style:normal;font-variant:normal;font-weight:bold;font-stretch:normal;font-family:'Latin Modern Sans Quotation';-inkscape-font-specification:'Latin Modern Sans Quotation Bold';fill:#6b7785;fill-opacity:1"
          id="path1824" />
      <path
          d="m 44.450493,1.9561997 c 0,-0.1524 -0.1397,-0.1524 -0.23495,-0.1524 h -0.2286 c -0.12065,0 -0.28575,0 -0.3683,0.23495 l -1.1684,3.3654999 -1.1684,-3.3591499 c -0.08255,-0.2413 -0.23495,-0.2413 -0.3683,-0.2413 h -0.55245 c -0.127,0 -0.28575,0 -0.3683,0.23495 l -1.1557,3.3337499 -1.16205,-3.3337499 c -0.08255,-0.23495 -0.2286,-0.23495 -0.36195,-0.23495 h -0.32385 c -0.09525,0 -0.23495,0 -0.23495,0.1524 0,0.0254 0,0.0381 0.03175,0.12065 l 1.3462,3.8734999 c 0.08255,0.2413 0.2413,0.2413 0.3683,0.2413 h 0.55245 c 0.13335,0 0.28575,0 0.37465,-0.254 l 1.16205,-3.3527999 1.17475,3.3718499 c 0.08255,0.23495 0.2286,0.23495 0.36195,0.23495 h 0.57785 c 0.127,0 0.28575,0 0.3683,-0.2413 l 1.3462,-3.8734999 c 0.03175,-0.08255 0.03175,-0.09525 0.03175,-0.12065 z"
          style="font-style:normal;font-variant:normal;font-weight:bold;font-stretch:normal;font-size:6.35px;font-family:'Latin Modern Sans Quotation';-inkscape-font-specification:'Latin Modern Sans Quotation Bold';fill:#e55353;fill-opacity:1"
          id="path1826" />
      <path
          d="m 47.561992,4.1151997 c 0,-0.61595 -0.36195,-1.47955 -1.6129,-1.47955 -1.08585,0 -1.8796,0.84455 -1.8796,1.78435 0,0.9715499 0.8636,1.7906999 1.9939,1.7906999 0.508,0 1.00965,-0.14605 1.42875,-0.4318 0.0127,-0.01905 0.01905,-0.0635 0.01905,-0.08255 0,-0.0635 -0.01905,-0.23495 -0.0254,-0.3048 -0.01905,-0.1778 -0.0254,-0.22225 -0.1016,-0.22225 -0.0381,0 -0.0635,0.0254 -0.127,0.08255 -0.4699,0.4445 -1.00965,0.47625 -1.1811,0.47625 -0.5207,0 -1.11125,-0.4318 -1.11125,-1.3652499 h 2.31775 c 0.127,0 0.2794,0 0.2794,-0.24765 z m -0.83185,-0.1143 h -1.7145 c 0.1143,-0.4699 0.4699,-0.88265 0.9271,-0.88265 0.55245,0 0.75565,0.42545 0.7874,0.88265 z"
          style="font-style:normal;font-variant:normal;font-weight:bold;font-stretch:normal;font-size:6.35px;font-family:'Latin Modern Sans Quotation';-inkscape-font-specification:'Latin Modern Sans Quotation Bold';fill:#e55353;fill-opacity:1"
          id="path1828" />
      <path
          d="m 51.264046,4.4326997 c 0,-0.9652 -0.67945,-1.7653 -1.5494,-1.7653 -0.28575,0 -0.6985,0.0762 -1.073149,0.40005 v -1.04775 c 0,-0.2159 -0.0508,-0.2794 -0.2794,-0.2794 h -0.3556 c -0.2159,0 -0.2794,0.0508 -0.2794,0.2794 v 3.8480999 c 0,0.2159 0.0508,0.2794 0.2794,0.2794 h 0.3683 c 0.279399,0 0.279399,-0.1143 0.279399,-0.3302 0.33655,0.36195 0.6985,0.3937 0.8763,0.3937 0.9017,0 1.73355,-0.74295 1.73355,-1.7779999 z m -0.9271,-0.0127 c 0,0.27305 -0.0127,0.6476999 -0.22225,0.9270999 -0.24765,0.32385 -0.635,0.381 -0.8255,0.381 -0.34925,0 -0.55245,-0.2159 -0.635,-0.32385 V 3.4230497 c 0.14605,-0.14605 0.4064,-0.27305 0.71755,-0.27305 0.3175,0 0.61595,0.14605 0.78105,0.3937 0.1524,0.23495 0.18415,0.5334 0.18415,0.8763 z"
          style="font-style:normal;font-variant:normal;font-weight:bold;font-stretch:normal;font-size:6.35px;font-family:'Latin Modern Sans Quotation';-inkscape-font-specification:'Latin Modern Sans Quotation Bold';fill:#e55353;fill-opacity:1"
          id="path1830" />
    </g>
    <g
       aria-label="_"
       transform="matrix(0.99120515,0,0,1.0088729,0.02018966,0.04021694)"
       id="text1580"
       style="font-style:normal;font-weight:normal;font-size:7.38829px;line-height:1.25;font-family:sans-serif;fill:#000000;fill-opacity:1;stroke:none;stroke-width:0.230883">
      <path
         d="M 5.9795278,7.6638751 V 8.2122247 H 2.6713922 V 7.6638751 Z"
         style="font-size:7.38829px;fill:#6b7785;fill-opacity:1;stroke-width:0.230883"
         id="path1833" />
    </g>
    <g
       aria-label="."
       transform="matrix(0.96430306,0,0,1.0370184,0.02018966,0.04021694)"
       id="text1584"
       style="font-style:normal;font-weight:normal;font-size:5.15527px;line-height:1.25;font-family:sans-serif;fill:#000000;fill-opacity:1;stroke:none;stroke-width:0.161102">
      <path
         d="m 6.5313766,7.7103321 q 0,-0.1183094 0.072999,-0.1988605 0.075517,-0.083068 0.2164811,-0.083068 0.1409644,0 0.2139638,0.083068 0.075517,0.080551 0.075517,0.1988605 0,0.1157922 -0.075517,0.1963433 -0.072999,0.080551 -0.2139638,0.080551 -0.1409644,0 -0.2164811,-0.080551 -0.072999,-0.080551 -0.072999,-0.1963433 z"
         style="font-size:5.15527px;fill:#6b7785;fill-opacity:1;stroke-width:0.161102"
         id="path1836" />
    </g>
    <g
       aria-label="^"
       id="text2337"
       style="font-size:7.05556px;line-height:1.25;font-family:sans-serif;letter-spacing:-0.00264583px;stroke-width:0.264583"
       transform="translate(0.02018966,0.04021694)">
      <path
         d="m 6.5377385,1.1998113 -1.79705,-1.016 -1.79705,1.016 0.06985,0.1397 1.72085,-0.78105 1.7272,0.78105 z"
         style="font-style:normal;font-variant:normal;font-weight:normal;font-stretch:normal;font-size:6.35px;font-family:'Latin Modern Roman';-inkscape-font-specification:'Latin Modern Roman, ';baseline-shift:baseline;fill:#e55353;fill-opacity:1;stroke-width:0.264583"
         id="path1839" />
    </g>
    <g
       aria-label="#"
       id="text3877"
       style="font-size:1.41111px;line-height:1.25;font-family:sans-serif;letter-spacing:-0.00264583px;stroke-width:0.264583"
       transform="translate(0.02018966,0.04021694)">
      <path
         d="M 2.3575704,1.5676357 2.3039482,1.8216355 H 2.4986814 V 1.9345243 H 2.2799593 l -0.060678,0.282222 H 2.096515 L 2.157193,1.9345243 H 1.8608596 l -0.060678,0.282222 H 1.6774153 l 0.060678,-0.282222 H 1.5165488 V 1.8216355 H 1.7620819 L 1.8157041,1.5676357 H 1.5969821 V 1.4547469 H 1.839693 l 0.060678,-0.282222 h 0.1227666 l -0.060678,0.282222 h 0.2963331 l 0.060678,-0.282222 H 2.442237 l -0.060678,0.282222 h 0.1961443 v 0.1128888 z m -0.1227666,0 H 1.9384707 l -0.053622,0.2539998 h 0.2963331 z"
         style="font-style:normal;font-variant:normal;font-weight:normal;font-stretch:normal;font-size:1.41111px;font-family:Poppins;-inkscape-font-specification:Poppins;fill:#e55353;fill-opacity:1;stroke-width:0.264583"
         id="path1842" />
    </g>
  </g>
</svg>
